<svg width="1116" height="491" viewBox="0 0 1116 491" fill="none" xmlns="http://www.w3.org/2000/svg">
<g opacity="0.1">
<path d="M664.918 10.8538H451.082V12.8453H664.918V10.8538Z" fill="white"/>
<path d="M769.406 42.3397H346.594V44.3312H769.406V42.3397Z" fill="white"/>
<path d="M866.722 94.4776H249.297V96.4691H866.722V94.4776Z" fill="white"/>
<path d="M952.008 165.256H164.012V167.248H952.008V165.256Z" fill="white"/>
<path d="M1021.53 249.896H94.4718V251.887H1021.53V249.896Z" fill="white"/>
<path d="M1073.49 348.097H42.534V350.089H1073.49V348.097Z" fill="white"/>
<path d="M1105.06 453.728H10.9447V455.719H1105.06V453.728Z" fill="white"/>
<path d="M1115.51 562.504H0.513648V564.496H1115.51V562.504Z" fill="white"/>
<path d="M664.918 1114.17H451.082V1116.17H664.918V1114.17Z" fill="white"/>
<path d="M769.406 1082.69H346.594V1084.68H769.406V1082.69Z" fill="white"/>
<path d="M866.722 1030.55H249.297V1032.54H866.722V1030.55Z" fill="white"/>
<path d="M952.008 959.772H164.012V961.764H952.008V959.772Z" fill="white"/>
<path d="M1021.53 875.133H94.4718V877.124H1021.53V875.133Z" fill="white"/>
<path d="M1073.49 776.931H42.534V778.922H1073.49V776.931Z" fill="white"/>
<path d="M1105.06 671.281H10.9447V673.272H1105.06V671.281Z" fill="white"/>
<path d="M558 1126C482.671 1126 409.595 1111.13 340.806 1081.79C274.367 1053.45 214.685 1012.91 163.439 961.246C112.193 909.586 71.97 849.442 43.8577 782.448C14.7575 713.103 0 639.437 0 563.5C0 487.563 14.7575 413.897 43.8577 344.552C71.97 277.578 112.193 217.414 163.439 165.754C214.685 114.094 274.348 73.5468 340.806 45.2075C409.595 15.8923 482.671 1.01567 558 1.01567C633.328 1.01567 706.405 15.8923 775.194 45.2274C841.633 73.5667 901.315 114.114 952.561 165.774C1003.81 217.434 1044.03 277.598 1072.14 344.572C1101.24 413.917 1116 487.583 1116 563.52C1116 639.457 1101.24 713.123 1072.14 782.467C1044.03 849.442 1003.81 909.606 952.561 961.266C901.315 1012.93 841.652 1053.47 775.194 1081.81C706.405 1111.13 633.328 1126 558 1126ZM558 2.01143C250.878 2.01143 1.00754 253.899 1.00754 563.5C1.00754 873.101 250.878 1124.99 558 1124.99C865.122 1124.99 1114.99 873.101 1114.99 563.5C1114.99 253.899 865.142 2.01143 558 2.01143Z" fill="white"/>
<path d="M558 1126C484.331 1126 412.875 1111.13 345.606 1081.79C280.63 1053.45 222.271 1012.91 172.171 961.246C122.071 909.586 82.7171 849.442 55.237 782.448C26.7887 713.103 12.3671 639.437 12.3671 563.5C12.3671 487.563 26.7887 413.897 55.237 344.552C82.7171 277.578 122.051 217.414 172.171 165.754C222.271 114.094 280.63 73.5468 345.606 45.2075C412.875 15.8724 484.331 0.995759 558 0.995759C631.669 0.995759 703.125 15.8724 770.394 45.2075C835.37 73.5468 893.728 114.094 943.829 165.754C993.929 217.414 1033.28 277.578 1060.76 344.552C1089.21 413.897 1103.63 487.563 1103.63 563.5C1103.63 639.437 1089.21 713.103 1060.76 782.448C1033.28 849.422 993.949 909.586 943.829 961.246C893.728 1012.91 835.37 1053.47 770.394 1081.79C703.125 1111.13 631.669 1126 558 1126ZM558 2.01143C257.674 2.01143 13.3351 253.899 13.3351 563.5C13.3351 873.101 257.674 1124.99 558 1124.99C858.326 1124.99 1102.66 873.101 1102.66 563.5C1102.66 253.899 858.326 2.01143 558 2.01143Z" fill="white"/>
<path d="M558 1126C488.203 1126 420.5 1111.13 356.768 1081.79C295.21 1053.45 239.933 1012.91 192.46 961.246C144.987 909.586 107.728 849.442 81.6898 782.447C54.7431 713.103 41.0721 639.437 41.0721 563.52C41.0721 487.583 54.7431 413.937 81.6898 344.592C107.728 277.618 144.987 217.454 192.46 165.794C239.933 114.134 295.21 73.5667 356.768 45.2473C420.5 15.9122 488.203 1.03559 558 1.03559C627.797 1.03559 695.5 15.9122 759.232 45.2473C820.79 73.5866 876.067 114.134 923.54 165.794C971.013 217.454 1008.27 277.598 1034.31 344.592C1061.26 413.937 1074.93 487.603 1074.93 563.52C1074.93 639.456 1061.26 713.103 1034.31 782.447C1008.27 849.422 971.013 909.586 923.54 961.246C876.067 1012.91 820.79 1053.47 759.232 1081.79C695.5 1111.13 627.797 1126 558 1126ZM558 2.01143C273.518 2.01143 42.0599 253.899 42.0599 563.5C42.0599 873.101 273.518 1124.99 558 1124.99C842.482 1124.99 1073.94 873.101 1073.94 563.5C1073.94 253.899 842.502 2.01143 558 2.01143Z" fill="white"/>
<path d="M558 1126.5C433.895 1126.5 317.217 1067.91 229.482 961.545C141.787 855.218 93.484 713.86 93.484 563.5C93.484 413.16 141.787 271.802 229.482 165.475C317.217 59.1083 433.895 0.517795 558 0.517795C682.105 0.517795 798.783 59.1083 886.518 165.475C974.213 271.802 1022.52 413.16 1022.52 563.5C1022.52 713.84 974.213 855.198 886.518 961.525C798.783 1067.91 682.105 1126.5 558 1126.5ZM558 2.50931C302.954 2.50931 95.4596 254.177 95.4596 563.5C95.4596 872.823 302.954 1124.49 558 1124.49C813.046 1124.49 1020.54 872.823 1020.54 563.5C1020.54 254.177 813.046 2.50931 558 2.50931Z" fill="white"/>
<path d="M558 1127C452.267 1127 352.896 1068.31 278.2 961.764C203.602 855.357 162.53 713.939 162.53 563.52C162.53 413.101 203.602 271.663 278.2 165.276C352.896 58.7299 452.267 0.0398303 558 0.0398303C663.733 0.0398303 763.104 58.7299 837.8 165.276C912.398 271.663 953.47 413.101 953.47 563.52C953.47 713.939 912.398 855.377 837.8 961.764C763.104 1068.31 663.733 1127 558 1127ZM558 3.00719C341.556 3.00719 165.474 254.456 165.474 563.5C165.474 872.544 341.556 1123.99 558 1123.99C774.444 1123.99 950.526 872.544 950.526 563.5C950.526 254.456 774.444 3.00719 558 3.00719Z" fill="white"/>
<path d="M558 1127C475.48 1127 397.999 1068.23 339.818 961.505C281.835 855.158 249.91 713.82 249.91 563.5C249.91 413.18 281.835 271.842 339.818 165.495C397.999 58.7697 475.48 0 558 0C640.52 0 718.001 58.7697 776.182 165.495C834.165 271.842 866.09 413.18 866.09 563.5C866.09 713.82 834.165 855.158 776.182 961.505C718.021 1068.23 640.52 1127 558 1127ZM558 4.00295C390.294 4.00295 253.861 254.994 253.861 563.52C253.861 872.046 390.294 1123.04 558 1123.04C725.706 1123.04 862.139 872.046 862.139 563.52C862.139 254.994 725.706 4.00295 558 4.00295Z" fill="white"/>
<path d="M558 1127C499.602 1127 444.938 1068.01 404.083 960.927C363.584 854.72 341.28 713.601 341.28 563.52C341.28 413.439 363.584 272.32 404.083 166.113C444.918 59.0087 499.582 0.0398303 558 0.0398303C616.398 0.0398303 671.062 59.0286 711.917 166.113C752.416 272.32 774.72 413.439 774.72 563.52C774.72 713.601 752.416 854.72 711.917 960.927C671.062 1068.01 616.418 1127 558 1127ZM558 5.97455C441.777 5.97455 347.207 256.089 347.207 563.5C347.207 870.911 441.777 1121.03 558 1121.03C674.223 1121.03 768.793 870.911 768.793 563.5C768.793 256.089 674.243 5.97455 558 5.97455Z" fill="white"/>
<path d="M558 1127C517.639 1127 491.305 1036.15 476.31 959.912C455.488 853.983 444.01 713.202 444.01 563.5C444.01 413.798 455.488 273.017 476.31 167.088C491.305 90.873 517.639 0 558 0C598.361 0 624.695 90.8531 639.69 167.088C660.512 273.017 671.99 413.798 671.99 563.5C671.99 713.202 660.512 853.983 639.69 959.912C624.695 1036.15 598.361 1127 558 1127ZM558 7.94616C531.112 7.94616 504.166 66.5167 484.074 168.622C463.331 274.053 451.912 414.296 451.912 563.5C451.912 712.705 463.331 852.947 484.074 958.378C504.146 1060.5 531.093 1119.05 558 1119.05C584.888 1119.05 611.834 1060.48 631.926 958.378C652.669 852.947 664.088 712.705 664.088 563.5C664.088 414.296 652.669 274.053 631.926 168.622C611.834 66.5167 584.907 7.94616 558 7.94616Z" fill="white"/>
<path d="M562.939 2.01143H553.061V1125.01H562.939V2.01143Z" fill="white"/>
</g>
</svg>
